<?xml version="1.0" encoding="UTF-8"?>
<svg id="Layer_2" data-name="Layer 2" xmlns="http://www.w3.org/2000/svg" xmlns:xlink="http://www.w3.org/1999/xlink" viewBox="0 0 409.22 84.49">
  <defs>
    <style>
      .cls-1 {
        fill: url(#linear-gradient);
      }
    </style>
    <linearGradient id="linear-gradient" x1="0" y1="42.24" x2="409.22" y2="42.24" gradientUnits="userSpaceOnUse">
      <stop offset="0" stop-color="#5e4a54"/>
      <stop offset="1" stop-color="#f7a49e"/>
    </linearGradient>
  </defs>
  <g id="Layer_1-2" data-name="Layer 1">
    <g>
      <path class="cls-1" d="M11.8,83.54H0V.94H11.8V83.54ZM60.3,46.73H10.62v-10.27H60.3v10.27ZM59.24,.94h11.8V83.54h-11.8V.94Z"/>
      <path class="cls-1" d="M133.1,84.49c-6.29,0-12.14-1.06-17.52-3.19-5.39-2.12-10.05-5.09-13.98-8.91-3.93-3.81-7-8.28-9.2-13.39-2.2-5.11-3.3-10.7-3.3-16.76s1.1-11.64,3.3-16.76c2.2-5.11,5.27-9.58,9.2-13.39,3.93-3.81,8.57-6.78,13.92-8.91,5.35-2.12,11.21-3.19,17.58-3.19s12.11,1.04,17.46,3.13c5.35,2.09,9.99,5.04,13.92,8.85,3.93,3.82,6.98,8.3,9.15,13.45,2.16,5.15,3.25,10.76,3.25,16.82s-1.08,11.76-3.25,16.87c-2.16,5.11-5.21,9.58-9.15,13.39-3.93,3.82-8.58,6.77-13.92,8.85-5.35,2.09-11.17,3.13-17.46,3.13Zm-.12-10.5c4.64,0,8.91-.79,12.8-2.36,3.89-1.57,7.28-3.79,10.15-6.67s5.11-6.23,6.73-10.09c1.61-3.85,2.42-8.06,2.42-12.63s-.81-8.75-2.42-12.57c-1.61-3.81-3.85-7.18-6.73-10.09-2.87-2.91-6.25-5.15-10.15-6.73-3.89-1.57-8.16-2.36-12.8-2.36s-8.79,.79-12.69,2.36c-3.89,1.57-7.3,3.82-10.21,6.73-2.91,2.91-5.17,6.27-6.79,10.09-1.61,3.82-2.42,8.01-2.42,12.57s.81,8.77,2.42,12.63c1.61,3.85,3.87,7.22,6.79,10.09,2.91,2.87,6.31,5.09,10.21,6.67,3.89,1.57,8.12,2.36,12.69,2.36Z"/>
      <path class="cls-1" d="M194.94,83.54V.94h11.8V73.28h44.72v10.27h-56.52Z"/>
      <path class="cls-1" d="M265.03,83.54V.94h11.8V73.28h44.72v10.27h-56.52Z"/>
      <path class="cls-1" d="M322.61,83.54L360.02,.94h11.68l37.52,82.6h-12.39L363.44,7.55h4.72l-33.39,75.99h-12.15Zm15.93-20.65l3.19-9.44h46.49l3.42,9.44h-53.1Z"/>
    </g>
  </g>
</svg>